# xmcd
#
# Track frame offsets:
#	150
#	30835
#	59092
#	80615
#	100890
#	117730
#	134677
#	152862
#	167620
#	181720
#	198055
#
# Disc length: 3734 seconds
#
# Revision: 2
# Processed by: cddbd v1.5.2PL0 Copyright (c) Steve Scherf et al.
# Submitted via: EZCDAudioConverter 3.1.0.1
#
DISCID=900e940b
DTITLE=Various Artist - 百代百年 重修舊好 混音精選
DYEAR=2003
DGENRE=Pop
TTITLE0=白光 - 等著你回來
TTITLE1=李香蘭 - 恨不相逢未嫁時
TTITLE2=周璇 - 不要唱吧
TTITLE3=白光 - 假正經
TTITLE4=張露 - 滿天星
TTITLE5=姚莉 - 得不到的愛情
TTITLE6=白虹 - 且聽我說
TTITLE7=白光 - 秋夜
TTITLE8=周璇 - 天涯歌女
TTITLE9=張露 - 鋤頭山歌
TTITLE10=周璇 - Various - 夜上海 2003 - Megamix (Hidden Track)
EXTD=
EXTT0=
EXTT1=
EXTT2=
EXTT3=
EXTT4=
EXTT5=
EXTT6=
EXTT7=
EXTT8=
EXTT9=
EXTT10=
PLAYORDER=
